<mxfile host="app.diagrams.net" modified="2023-10-16T02:37:29.363Z" agent="Mozilla/5.0 (Windows NT 10.0; Win64; x64; rv:109.0) Gecko/20100101 Firefox/118.0" etag="X2DR05TBQJH0DDn9amBi" version="22.0.4" type="github">
  <diagram id="C5RBs43oDa-KdzZeNtuy" name="Page-1">
    <mxGraphModel dx="880" dy="5146" grid="1" gridSize="10" guides="1" tooltips="1" connect="1" arrows="1" fold="1" page="1" pageScale="1" pageWidth="827" pageHeight="1169" math="0" shadow="0">
      <root>
        <mxCell id="WIyWlLk6GJQsqaUBKTNV-0" />
        <mxCell id="WIyWlLk6GJQsqaUBKTNV-1" parent="WIyWlLk6GJQsqaUBKTNV-0" />
        <mxCell id="H6TjN95hk4IunvAX_NFz-0" style="edgeStyle=orthogonalEdgeStyle;rounded=0;orthogonalLoop=1;jettySize=auto;html=1;exitX=0.5;exitY=1;exitDx=0;exitDy=0;exitPerimeter=0;entryX=0.5;entryY=0;entryDx=0;entryDy=0;" edge="1" parent="WIyWlLk6GJQsqaUBKTNV-1" source="H6TjN95hk4IunvAX_NFz-1">
          <mxGeometry relative="1" as="geometry">
            <mxPoint x="435" y="-4240" as="targetPoint" />
          </mxGeometry>
        </mxCell>
        <mxCell id="H6TjN95hk4IunvAX_NFz-1" value="start" style="strokeWidth=2;html=1;shape=mxgraph.flowchart.terminator;whiteSpace=wrap;" vertex="1" parent="WIyWlLk6GJQsqaUBKTNV-1">
          <mxGeometry x="390" y="-4320" width="90" height="40" as="geometry" />
        </mxCell>
        <mxCell id="H6TjN95hk4IunvAX_NFz-2" style="edgeStyle=orthogonalEdgeStyle;rounded=0;orthogonalLoop=1;jettySize=auto;html=1;exitX=0.5;exitY=1;exitDx=0;exitDy=0;" edge="1" parent="WIyWlLk6GJQsqaUBKTNV-1">
          <mxGeometry relative="1" as="geometry">
            <mxPoint x="439.5" y="-4091" as="targetPoint" />
            <mxPoint x="439.5" y="-4131" as="sourcePoint" />
          </mxGeometry>
        </mxCell>
        <mxCell id="H6TjN95hk4IunvAX_NFz-3" value="input bilangan " style="shape=parallelogram;html=1;strokeWidth=2;perimeter=parallelogramPerimeter;whiteSpace=wrap;rounded=1;arcSize=12;size=0.23;" vertex="1" parent="WIyWlLk6GJQsqaUBKTNV-1">
          <mxGeometry x="330" y="-4170" width="210" height="40" as="geometry" />
        </mxCell>
        <mxCell id="H6TjN95hk4IunvAX_NFz-4" value="" style="edgeStyle=orthogonalEdgeStyle;rounded=0;orthogonalLoop=1;jettySize=auto;html=1;exitX=0.5;exitY=1;exitDx=0;exitDy=0;" edge="1" parent="WIyWlLk6GJQsqaUBKTNV-1" target="H6TjN95hk4IunvAX_NFz-6">
          <mxGeometry relative="1" as="geometry">
            <mxPoint x="435" y="-4160" as="targetPoint" />
            <mxPoint x="435" y="-4200" as="sourcePoint" />
          </mxGeometry>
        </mxCell>
        <mxCell id="H6TjN95hk4IunvAX_NFz-5" style="edgeStyle=orthogonalEdgeStyle;rounded=0;orthogonalLoop=1;jettySize=auto;html=1;exitX=0.5;exitY=1;exitDx=0;exitDy=0;" edge="1" parent="WIyWlLk6GJQsqaUBKTNV-1" source="H6TjN95hk4IunvAX_NFz-6">
          <mxGeometry relative="1" as="geometry">
            <mxPoint x="440" y="-4170" as="targetPoint" />
          </mxGeometry>
        </mxCell>
        <mxCell id="H6TjN95hk4IunvAX_NFz-6" value="integer bilangan " style="shape=internalStorage;whiteSpace=wrap;html=1;dx=15;dy=15;rounded=1;arcSize=8;strokeWidth=2;" vertex="1" parent="WIyWlLk6GJQsqaUBKTNV-1">
          <mxGeometry x="370" y="-4240" width="140" height="40" as="geometry" />
        </mxCell>
        <mxCell id="H6TjN95hk4IunvAX_NFz-7" style="edgeStyle=orthogonalEdgeStyle;rounded=0;orthogonalLoop=1;jettySize=auto;html=1;exitX=0;exitY=0.5;exitDx=0;exitDy=0;exitPerimeter=0;" edge="1" parent="WIyWlLk6GJQsqaUBKTNV-1" source="H6TjN95hk4IunvAX_NFz-8">
          <mxGeometry relative="1" as="geometry">
            <mxPoint x="240" y="-3900" as="targetPoint" />
          </mxGeometry>
        </mxCell>
        <mxCell id="H6TjN95hk4IunvAX_NFz-8" value="&lt;div&gt;bilangan mod 2 = 0&lt;/div&gt;&lt;div&gt;&lt;br&gt;&lt;/div&gt;" style="strokeWidth=2;html=1;shape=mxgraph.flowchart.decision;whiteSpace=wrap;" vertex="1" parent="WIyWlLk6GJQsqaUBKTNV-1">
          <mxGeometry x="330" y="-4090" width="220" height="120" as="geometry" />
        </mxCell>
        <mxCell id="H6TjN95hk4IunvAX_NFz-9" style="edgeStyle=orthogonalEdgeStyle;rounded=0;orthogonalLoop=1;jettySize=auto;html=1;exitX=0.5;exitY=1;exitDx=0;exitDy=0;" edge="1" parent="WIyWlLk6GJQsqaUBKTNV-1" source="H6TjN95hk4IunvAX_NFz-10" target="H6TjN95hk4IunvAX_NFz-12">
          <mxGeometry relative="1" as="geometry" />
        </mxCell>
        <mxCell id="H6TjN95hk4IunvAX_NFz-10" value="input bilangan &amp;amp; bilang ganjil" style="shape=parallelogram;html=1;strokeWidth=2;perimeter=parallelogramPerimeter;whiteSpace=wrap;rounded=1;arcSize=12;size=0.23;" vertex="1" parent="WIyWlLk6GJQsqaUBKTNV-1">
          <mxGeometry x="100" y="-3897.5" width="260" height="50" as="geometry" />
        </mxCell>
        <mxCell id="H6TjN95hk4IunvAX_NFz-11" value="input bilangan &amp;amp; bilangan genap" style="shape=parallelogram;html=1;strokeWidth=2;perimeter=parallelogramPerimeter;whiteSpace=wrap;rounded=1;arcSize=12;size=0.23;" vertex="1" parent="WIyWlLk6GJQsqaUBKTNV-1">
          <mxGeometry x="540" y="-3895" width="250" height="45" as="geometry" />
        </mxCell>
        <mxCell id="H6TjN95hk4IunvAX_NFz-12" value="end" style="strokeWidth=2;html=1;shape=mxgraph.flowchart.terminator;whiteSpace=wrap;" vertex="1" parent="WIyWlLk6GJQsqaUBKTNV-1">
          <mxGeometry x="385" y="-3760" width="100" height="60" as="geometry" />
        </mxCell>
        <mxCell id="H6TjN95hk4IunvAX_NFz-13" style="edgeStyle=orthogonalEdgeStyle;rounded=0;orthogonalLoop=1;jettySize=auto;html=1;exitX=0.5;exitY=1;exitDx=0;exitDy=0;entryX=0.5;entryY=0;entryDx=0;entryDy=0;entryPerimeter=0;" edge="1" parent="WIyWlLk6GJQsqaUBKTNV-1" source="H6TjN95hk4IunvAX_NFz-11" target="H6TjN95hk4IunvAX_NFz-12">
          <mxGeometry relative="1" as="geometry" />
        </mxCell>
        <mxCell id="H6TjN95hk4IunvAX_NFz-14" style="edgeStyle=orthogonalEdgeStyle;rounded=0;orthogonalLoop=1;jettySize=auto;html=1;exitX=1;exitY=0.5;exitDx=0;exitDy=0;exitPerimeter=0;entryX=0.528;entryY=0;entryDx=0;entryDy=0;entryPerimeter=0;" edge="1" parent="WIyWlLk6GJQsqaUBKTNV-1" source="H6TjN95hk4IunvAX_NFz-8" target="H6TjN95hk4IunvAX_NFz-11">
          <mxGeometry relative="1" as="geometry" />
        </mxCell>
      </root>
    </mxGraphModel>
  </diagram>
</mxfile>
